<svg width="31" height="31" viewBox="0 0 31 31" fill="none" xmlns="http://www.w3.org/2000/svg">
<g clip-path="url(#clip0_253_1261)">
<path fill-rule="evenodd" clip-rule="evenodd" d="M23.2953 7.35712L8.71566 14.6479L7.84766 12.9139L22.4273 5.625L23.2953 7.35712ZM22.4273 25.3759L7.84766 18.087L8.71759 16.3529L23.2973 23.6438L22.4293 25.3759H22.4273Z" fill="#212121"/>
<path fill-rule="evenodd" clip-rule="evenodd" d="M26.1562 9.6875C27.4409 9.6875 28.6729 9.17718 29.5813 8.2688C30.4897 7.36042 31 6.12839 31 4.84375C31 3.55911 30.4897 2.32708 29.5813 1.4187C28.6729 0.510322 27.4409 0 26.1562 0C24.8716 0 23.6396 0.510322 22.7312 1.4187C21.8228 2.32708 21.3125 3.55911 21.3125 4.84375C21.3125 6.12839 21.8228 7.36042 22.7312 8.2688C23.6396 9.17718 24.8716 9.6875 26.1562 9.6875ZM26.1562 31C27.4409 31 28.6729 30.4897 29.5813 29.5813C30.4897 28.6729 31 27.4409 31 26.1562C31 24.8716 30.4897 23.6396 29.5813 22.7312C28.6729 21.8228 27.4409 21.3125 26.1562 21.3125C24.8716 21.3125 23.6396 21.8228 22.7312 22.7312C21.8228 23.6396 21.3125 24.8716 21.3125 26.1562C21.3125 27.4409 21.8228 28.6729 22.7312 29.5813C23.6396 30.4897 24.8716 31 26.1562 31ZM4.84375 20.3438C6.12839 20.3438 7.36042 19.8334 8.2688 18.925C9.17718 18.0167 9.6875 16.7846 9.6875 15.5C9.6875 14.2154 9.17718 12.9833 8.2688 12.075C7.36042 11.1666 6.12839 10.6562 4.84375 10.6562C3.55911 10.6562 2.32708 11.1666 1.4187 12.075C0.510322 12.9833 0 14.2154 0 15.5C0 16.7846 0.510322 18.0167 1.4187 18.925C2.32708 19.8334 3.55911 20.3438 4.84375 20.3438Z" fill="#212121"/>
</g>
<defs>
<clipPath id="clip0_253_1261">
<rect width="31" height="31" fill="white"/>
</clipPath>
</defs>
</svg>
